<svg width="715" height="162" viewBox="0 0 715 162" fill="none" xmlns="http://www.w3.org/2000/svg">
<path fill-rule="evenodd" clip-rule="evenodd" d="M79.039 99.2986C78.7804 99.9241 78.529 100.553 78.2848 101.184C64.7949 105.692 50.2051 105.692 36.7152 101.184C36.4713 100.553 36.2199 99.924 35.961 99.2986C35.2445 97.564 34.8825 96.6892 34.2566 95.8898C33.6382 95.0828 32.5522 94.2683 30.3802 92.6468C22.7751 86.9529 17.1551 79.0098 14.3167 69.9433C11.4783 60.8768 11.5656 51.1469 14.5661 42.1328C17.5667 33.1187 23.3282 25.2776 31.0342 19.721C38.7402 14.1644 47.9996 11.1742 57.5 11.1742C67.0004 11.1742 76.2598 14.1644 83.9658 19.721C91.6718 25.2776 97.4333 33.1187 100.434 42.1328C103.434 51.1469 103.522 60.8768 100.683 69.9433C97.8449 79.0098 92.2249 86.9529 84.6198 92.6468C82.4478 94.2683 81.3618 95.0828 80.7434 95.8898C80.1175 96.6892 79.763 97.5565 79.039 99.2986ZM41.2854 118.002C41.9415 121.976 42.3111 126.004 42.4016 130.053C42.4092 130.589 42.5628 131.112 42.8459 131.567C43.129 132.021 43.5308 132.39 44.008 132.633C48.1971 134.728 52.8164 135.818 57.5 135.818C62.1836 135.818 66.8029 134.728 70.992 132.633C71.4692 132.39 71.871 132.021 72.1541 131.567C72.4372 131.112 72.5908 130.589 72.5984 130.053C72.6889 126.004 73.0585 121.984 73.7146 118.002C63.0162 120.197 51.9837 120.197 41.2854 118.002Z" fill="#F5CB5C"/>
<path d="M73.7621 104.892L66.8248 104.946L66.7202 91.6343C65.2734 92.4425 63.6612 93.088 61.8837 93.5708C60.0906 94.0536 58.2097 94.3028 56.241 94.3182C53.9598 94.3361 51.9104 94.0163 50.0926 93.3587C48.2593 92.7012 46.7049 91.7446 45.4293 90.489C44.1539 89.2489 43.1732 87.7332 42.4873 85.9416C41.7857 84.1502 41.426 82.1295 41.4084 79.8796L41.3016 66.2863L48.2155 66.232L48.32 79.544C48.3303 80.8565 48.5506 82.0501 48.981 83.1249C49.4114 84.2153 50.036 85.1479 50.8546 85.9228C51.6732 86.6976 52.6701 87.2914 53.8452 87.704C55.0049 88.1324 56.319 88.3409 57.7877 88.3293C59.5533 88.3155 61.1917 88.0213 62.7028 87.4469C64.214 86.8726 65.5365 86.1512 66.6703 85.2829L66.5196 66.0882L73.4569 66.0337L73.7621 104.892Z" fill="#242423"/>
<path d="M41.4337 105.127L48.371 105.073L48.2664 91.7605C49.7258 92.546 51.3479 93.1661 53.1327 93.6208C54.9332 94.0754 56.8178 94.295 58.7865 94.2795C61.0677 94.2616 63.1119 93.9096 64.919 93.2235C66.7418 92.5373 68.2811 91.5565 69.5367 90.2809C70.7925 89.021 71.7492 87.49 72.407 85.6879C73.0803 83.8857 73.4082 81.8596 73.3905 79.6097L73.2837 66.0164L66.3699 66.0707L66.4744 79.3828C66.4847 80.6952 66.2832 81.8922 65.8698 82.9736C65.4565 84.0706 64.8467 85.0129 64.0404 85.8005C63.2341 86.5881 62.2466 87.1975 61.0781 87.6285C59.9253 88.0751 58.6146 88.3042 57.1459 88.3157C55.3803 88.3296 53.7375 88.0612 52.2175 87.5106C50.6975 86.96 49.3639 86.2596 48.2165 85.4092L48.0658 66.2144L41.1285 66.2689L41.4337 105.127Z" fill="#242423"/>
<path d="M159.562 25.375H178.062V60.875C181.938 58.75 186.25 57.0625 191 55.8125C195.792 54.5625 200.812 53.9375 206.062 53.9375C212.146 53.9375 217.604 54.8333 222.438 56.625C227.312 58.4167 231.438 61 234.812 64.375C238.188 67.7083 240.771 71.7708 242.562 76.5625C244.396 81.3542 245.312 86.75 245.312 92.75V129H226.875V93.5C226.875 90 226.312 86.8125 225.188 83.9375C224.062 81.0208 222.417 78.5208 220.25 76.4375C218.083 74.3542 215.438 72.75 212.312 71.625C209.229 70.4583 205.729 69.875 201.812 69.875C197.104 69.875 192.729 70.625 188.688 72.125C184.646 73.625 181.104 75.5208 178.062 77.8125V129H159.562V25.375ZM262.562 91.875C262.562 86.875 263.583 82.1042 265.625 77.5625C267.667 72.9792 270.604 68.9375 274.438 65.4375C278.271 61.9375 282.958 59.1458 288.5 57.0625C294.083 54.9792 300.417 53.9375 307.5 53.9375C314.542 53.9375 320.875 55 326.5 57.125C332.167 59.2083 336.958 62.0833 340.875 65.75C344.833 69.4167 347.854 73.7292 349.938 78.6875C352.062 83.6458 353.125 88.9583 353.125 94.625C353.125 95.3333 353.104 96.1042 353.062 96.9375C353.062 97.7292 353.021 98.4583 352.938 99.125H283.188C283.979 101.333 285.25 103.354 287 105.187C288.792 107.021 291.021 108.604 293.688 109.937C296.354 111.271 299.438 112.312 302.938 113.062C306.438 113.771 310.312 114.125 314.562 114.125C318.812 114.125 323.042 113.687 327.25 112.812C331.458 111.896 335.479 110.75 339.312 109.375L345.562 123.5C343.146 124.625 340.688 125.625 338.188 126.5C335.729 127.333 333.146 128.042 330.438 128.625C327.771 129.167 324.958 129.583 322 129.875C319.083 130.167 316 130.312 312.75 130.312C304.458 130.312 297.188 129.312 290.938 127.312C284.688 125.312 279.458 122.583 275.25 119.125C271.042 115.667 267.875 111.604 265.75 106.938C263.625 102.271 262.562 97.25 262.562 91.875ZM333.5 84.6875C332.833 82.6458 331.792 80.75 330.375 79C329 77.2083 327.271 75.6667 325.188 74.375C323.104 73.0417 320.688 72 317.938 71.25C315.188 70.5 312.167 70.125 308.875 70.125C305.375 70.125 302.188 70.5208 299.312 71.3125C296.438 72.1042 293.917 73.1667 291.75 74.5C289.583 75.8333 287.771 77.375 286.312 79.125C284.896 80.875 283.854 82.7292 283.188 84.6875H333.5ZM373.062 55.25H391.562V61.5C396.479 58.7083 401.167 56.75 405.625 55.625C410.125 54.5 414.521 53.9375 418.812 53.9375C424.438 53.9375 429.646 54.7708 434.438 56.4375C439.229 58.0625 443.375 60.5 446.875 63.75C450.375 67 453.104 71.0625 455.062 75.9375C457.062 80.7708 458.062 86.375 458.062 92.75V129H439.625V95.75C439.625 91.7083 439.042 88.1042 437.875 84.9375C436.75 81.7292 435.104 79.0417 432.938 76.875C430.812 74.6667 428.208 73 425.125 71.875C422.083 70.7083 418.667 70.125 414.875 70.125C412.875 70.125 410.812 70.3333 408.688 70.75C406.604 71.1667 404.542 71.7708 402.5 72.5625C400.5 73.3125 398.562 74.2708 396.688 75.4375C394.812 76.5625 393.104 77.8542 391.562 79.3125V129H373.062V55.25ZM483.75 106.375C488.75 109.375 494.25 111.583 500.25 113C506.25 114.417 512.396 115.125 518.688 115.125C522.938 115.125 526.479 114.833 529.312 114.25C532.146 113.667 534.417 112.917 536.125 112C537.833 111.083 539.042 110.042 539.75 108.875C540.458 107.708 540.812 106.521 540.812 105.312C540.812 103.562 540.042 102.062 538.5 100.812C537 99.5625 534.5 98.9375 531 98.9375C529.375 98.9375 527.625 99.0417 525.75 99.25C523.875 99.4583 521.896 99.6875 519.812 99.9375C517.771 100.146 515.625 100.354 513.375 100.562C511.167 100.771 508.917 100.875 506.625 100.875C501.625 100.875 497.354 100.333 493.812 99.25C490.312 98.1667 487.458 96.6875 485.25 94.8125C483.042 92.9375 481.438 90.7292 480.438 88.1875C479.438 85.6042 478.938 82.8333 478.938 79.875C478.938 76.125 479.812 72.6667 481.562 69.5C483.312 66.3333 485.812 63.6042 489.062 61.3125C492.312 58.9792 496.229 57.1667 500.812 55.875C505.438 54.5833 510.583 53.9375 516.25 53.9375C519.208 53.9375 522.292 54.125 525.5 54.5C528.75 54.8333 531.938 55.2917 535.062 55.875C538.188 56.4583 541.188 57.1458 544.062 57.9375C546.938 58.6875 549.479 59.5 551.688 60.375L545.875 74.75C541.167 73 536.458 71.625 531.75 70.625C527.083 69.5833 522.271 69.0625 517.312 69.0625C513.854 69.0625 510.917 69.3333 508.5 69.875C506.125 70.375 504.188 71.0625 502.688 71.9375C501.188 72.7708 500.083 73.75 499.375 74.875C498.708 75.9583 498.375 77.1042 498.375 78.3125C498.375 79.1875 498.542 79.9792 498.875 80.6875C499.25 81.3958 499.833 82.0208 500.625 82.5625C501.458 83.0625 502.521 83.4583 503.812 83.75C505.146 84 506.771 84.125 508.688 84.125C510.438 84.125 512.292 84.0208 514.25 83.8125C516.208 83.6042 518.25 83.3958 520.375 83.1875C522.5 82.9375 524.688 82.7083 526.938 82.5C529.229 82.2917 531.562 82.1875 533.938 82.1875C538.354 82.1875 542.208 82.7083 545.5 83.75C548.833 84.7917 551.583 86.25 553.75 88.125C555.917 90 557.542 92.2083 558.625 94.75C559.708 97.2917 560.25 100.062 560.25 103.062C560.25 106.937 559.354 110.542 557.562 113.875C555.771 117.208 553.104 120.104 549.562 122.562C546.021 124.979 541.604 126.875 536.312 128.25C531.062 129.625 524.979 130.312 518.062 130.312C513.812 130.312 509.708 130.042 505.75 129.5C501.792 129 498.021 128.312 494.438 127.437C490.854 126.521 487.479 125.458 484.312 124.25C481.188 123.042 478.333 121.75 475.75 120.375L483.75 106.375ZM576.938 25.375H595.438V60.875C599.312 58.75 603.625 57.0625 608.375 55.8125C613.167 54.5625 618.188 53.9375 623.438 53.9375C629.521 53.9375 634.979 54.8333 639.812 56.625C644.688 58.4167 648.812 61 652.188 64.375C655.562 67.7083 658.146 71.7708 659.938 76.5625C661.771 81.3542 662.688 86.75 662.688 92.75V129H644.25V93.5C644.25 90 643.688 86.8125 642.562 83.9375C641.438 81.0208 639.792 78.5208 637.625 76.4375C635.458 74.3542 632.812 72.75 629.688 71.625C626.604 70.4583 623.104 69.875 619.188 69.875C614.479 69.875 610.104 70.625 606.062 72.125C602.021 73.625 598.479 75.5208 595.438 77.8125V129H576.938V25.375ZM693.188 45.1875C691.354 45.1875 689.688 44.9375 688.188 44.4375C686.729 43.8958 685.479 43.1875 684.438 42.3125C683.396 41.3958 682.583 40.3542 682 39.1875C681.458 37.9792 681.188 36.7083 681.188 35.375C681.188 34 681.458 32.7292 682 31.5625C682.583 30.3542 683.396 29.3125 684.438 28.4375C685.479 27.5625 686.729 26.875 688.188 26.375C689.688 25.8333 691.354 25.5625 693.188 25.5625C695.062 25.5625 696.729 25.8333 698.188 26.375C699.688 26.875 700.958 27.5625 702 28.4375C703.042 29.3125 703.833 30.3542 704.375 31.5625C704.958 32.7292 705.25 34 705.25 35.375C705.25 36.7083 704.958 37.9792 704.375 39.1875C703.833 40.3542 703.042 41.3958 702 42.3125C700.958 43.1875 699.688 43.8958 698.188 44.4375C696.729 44.9375 695.062 45.1875 693.188 45.1875ZM683.938 55.25H702.438V129H683.938V55.25Z" fill="#E8EDDF"/>
</svg>
