<svg width="91" height="125" viewBox="0 0 91 125" fill="none" xmlns="http://www.w3.org/2000/svg">
<path fill-rule="evenodd" clip-rule="evenodd" d="M67.039 88.2986C66.7804 88.9241 66.529 89.5526 66.2848 90.184C52.7949 94.6917 38.2051 94.6917 24.7152 90.184C24.4713 89.5526 24.2199 88.924 23.961 88.2986C23.2445 86.564 22.8825 85.6892 22.2566 84.8898C21.6382 84.0828 20.5522 83.2683 18.3802 81.6468C10.7751 75.9529 5.15508 68.0098 2.3167 58.9433C-0.521675 49.8768 -0.434413 40.1469 2.56612 31.1328C5.56666 22.1187 11.3282 14.2776 19.0342 8.72103C26.7402 3.16444 35.9996 0.174229 45.5 0.174229C55.0004 0.174229 64.2598 3.16444 71.9658 8.72103C79.6718 14.2776 85.4333 22.1187 88.4339 31.1328C91.4344 40.1469 91.5217 49.8768 88.6833 58.9433C85.8449 68.0098 80.2249 75.9529 72.6198 81.6468C70.4478 83.2683 69.3618 84.0828 68.7434 84.8898C68.1175 85.6892 67.763 86.5565 67.039 88.2986ZM29.2854 107.002C29.9415 110.976 30.3111 115.004 30.4016 119.053C30.4092 119.589 30.5628 120.112 30.8459 120.567C31.129 121.021 31.5308 121.39 32.008 121.633C36.1971 123.728 40.8164 124.818 45.5 124.818C50.1836 124.818 54.8029 123.728 58.992 121.633C59.4692 121.39 59.871 121.021 60.1541 120.567C60.4372 120.112 60.5908 119.589 60.5984 119.053C60.6889 115.004 61.0585 110.984 61.7146 107.002C51.0162 109.197 39.9837 109.197 29.2854 107.002Z" fill="#F5CB5C"/>
<path d="M61.7621 93.8919L54.8248 93.9464L54.7202 80.6343C53.2734 81.4425 51.6612 82.088 49.8837 82.5708C48.0906 83.0536 46.2097 83.3028 44.241 83.3182C41.9598 83.3361 39.9104 83.0163 38.0926 82.3587C36.2593 81.7012 34.7049 80.7446 33.4293 79.489C32.1539 78.2489 31.1732 76.7332 30.4873 74.9416C29.7857 73.1502 29.426 71.1295 29.4084 68.8796L29.3016 55.2863L36.2155 55.232L36.32 68.544C36.3303 69.8565 36.5506 71.0501 36.981 72.1249C37.4114 73.2153 38.036 74.1479 38.8546 74.9228C39.6732 75.6976 40.6701 76.2914 41.8452 76.704C43.0049 77.1324 44.319 77.3409 45.7877 77.3293C47.5533 77.3155 49.1917 77.0213 50.7028 76.4469C52.214 75.8726 53.5365 75.1512 54.6703 74.2829L54.5196 55.0882L61.4569 55.0337L61.7621 93.8919Z" fill="#242423"/>
<path d="M29.4337 94.1271L36.371 94.0726L36.2664 80.7605C37.7258 81.546 39.3479 82.1661 41.1327 82.6208C42.9332 83.0754 44.8178 83.295 46.7865 83.2795C49.0677 83.2616 51.1119 82.9096 52.919 82.2235C54.7418 81.5373 56.2811 80.5565 57.5367 79.2809C58.7925 78.021 59.7492 76.49 60.407 74.6879C61.0803 72.8857 61.4082 70.8596 61.3905 68.6097L61.2837 55.0164L54.3699 55.0707L54.4744 68.3828C54.4847 69.6952 54.2832 70.8922 53.8698 71.9736C53.4565 73.0706 52.8467 74.0129 52.0404 74.8005C51.2341 75.5881 50.2466 76.1975 49.0781 76.6285C47.9253 77.0751 46.6146 77.3042 45.1459 77.3157C43.3803 77.3296 41.7375 77.0612 40.2175 76.5106C38.6975 75.96 37.3639 75.2596 36.2165 74.4092L36.0658 55.2144L29.1285 55.2689L29.4337 94.1271Z" fill="#242423"/>
</svg>
